<svg xmlns="http://www.w3.org/2000/svg" version="1.1" xmlns:xlink="http://www.w3.org/1999/xlink" xmlns:svgjs="http://svgjs.dev/svgjs" width="1000" height="1000"><g clip-path="url(#SvgjsClipPath1103)"><rect width="1000" height="1000" fill="#ffffff"></rect><g transform="matrix(41.2796697626419,0,0,41.2796697626419,100,100)"><svg xmlns="http://www.w3.org/2000/svg" version="1.1" xmlns:xlink="http://www.w3.org/1999/xlink" xmlns:svgjs="http://svgjs.dev/svgjs" width="19.38" height="19.38"><svg version="1.1" id="Camada_1" xmlns="http://www.w3.org/2000/svg" xmlns:xlink="http://www.w3.org/1999/xlink" x="0px" y="0px" viewBox="0 0 19.38 19.38" style="enable-background:new 0 0 19.38 19.38;" xml:space="preserve">
<style type="text/css">
	.st0{fill:#F2F2F2;}
	.st1{clip-path:url(#SVGID_00000054954411623700250940000011054739581123755701_);fill:#F2F2F2;}
	.st2{fill:#333333;}
	.st3{clip-path:url(#SVGID_00000179622872941813880260000001180591605799387016_);fill:#333333;}
	.st4{fill:#C1272D;}
	.st5{clip-path:url(#SVGID_00000008111817311492345720000011860263507890959806_);fill:#C1272D;}
	.st6{clip-path:url(#SVGID_00000059278622425684295730000003147109635155063700_);fill:#333333;}
	.st7{clip-path:url(#SVGID_00000183956163985218421380000010920357182416073391_);fill:#C1272D;}
	.st8{clip-path:url(#SVGID_00000045595310310706699820000005027888862099883700_);fill:#F2F2F2;}
	.st9{fill:#CCCCCC;}
	.st10{fill:#B3B3B3;}
	.st11{clip-path:url(#SVGID_00000127758172860675915240000001761211184010701488_);fill:#C1272D;}
	.st12{fill:#FFFFFF;}
</style>
<g>
	<defs>
		<path id="SVGID_00000124148143944497100410000015355829747692055481_" d="M9.71,0.56c-5.48,0-9.46,4.13-9.46,9.18v0.05
			c0,5.05,3.93,9.13,9.4,9.13c5.48,0,9.46-4.13,9.46-9.18V9.69C19.11,4.64,15.18,0.56,9.71,0.56z M14.28,10.65
			c0,2.6-1.86,4.73-4.55,4.73s-4.6-2.17-4.6-4.77v-0.04c0-2.32,3.62-5.7,4.41-6.41c0.09-0.08,0.21-0.08,0.29,0
			c0.79,0.71,4.45,4.13,4.45,6.45V10.65z"></path>
	<clipPath id="SvgjsClipPath1103"><rect width="1000" height="1000" x="0" y="0" rx="200" ry="200"></rect></clipPath></defs>
	<use xlink:href="#SVGID_00000124148143944497100410000015355829747692055481_" style="overflow:visible;fill:#C1272D;"></use>
	<clipPath id="SVGID_00000011725613994574948510000012935758102654760598_">
		<use xlink:href="#SVGID_00000124148143944497100410000015355829747692055481_" style="overflow:visible;"></use>
	</clipPath>
	<path style="clip-path:url(#SVGID_00000011725613994574948510000012935758102654760598_);fill:#C1272D;" d="M9.83,4.16
		c-0.09-0.08-0.21-0.08-0.29,0c-0.78,0.7-4.41,4.08-4.41,6.41v0.04c0,2.6,1.91,4.77,4.6,4.77s4.55-2.13,4.55-4.73v-0.04
		C14.28,8.28,10.62,4.86,9.83,4.16z"></path>
</g>
</svg></svg></g></g></svg>