<?xml version="1.0" encoding="utf-8"?>
<!-- Generator: Adobe Adobe Illustrator 29.1.0, SVG Export Plug-In . SVG Version: 6.00 Build 0)  -->
<svg version="1.1" id="Layer_1" xmlns="http://www.w3.org/2000/svg" xmlns:xlink="http://www.w3.org/1999/xlink" x="0px" y="0px"
	 viewBox="0 0 48 48" style="enable-background:new 0 0 48 48;" xml:space="preserve">
<style type="text/css">
	.st0{fill:url(#SVGID_1_);}
	.st1{fill:url(#SVGID_00000165218932412536666830000006123440235299129522_);}
	.st2{fill:url(#SVGID_00000047775927118544457160000005286567406580415416_);}
	.st3{fill:#FFFFFF;}
	.st4{fill-rule:evenodd;clip-rule:evenodd;fill:#FFFFFF;}
</style>
<g id="icons">
	<g id="Layer_3">
		
			<linearGradient id="SVGID_1_" gradientUnits="userSpaceOnUse" x1="12.208" y1="25.992" x2="37.0002" y2="25.992" gradientTransform="matrix(1 0 0 -1 0 50)">
			<stop  offset="0" style="stop-color:#FF0015"/>
			<stop  offset="1" style="stop-color:#D6000B"/>
		</linearGradient>
		<path class="st0" d="M18.7,8.3c-2.3,1.1-4.1,2.9-5.2,5.2c-2.1,4.3-1.7,9.4,1.2,13.3l9.9,14.2l9.9-14.2c1.6-2.2,2.5-4.8,2.4-7.4
			C37,10.6,28,4,18.7,8.3z"/>
	</g>
</g>
<path id="gota" class="st3" d="M24.8,12.3c-0.1-0.1-0.3-0.1-0.4,0c-1,0.9-5.9,5.4-5.9,8.5v0.1c0,3.5,2.5,6.3,6.1,6.3
	s6.1-2.8,6.1-6.3v-0.1C30.7,17.7,25.8,13.2,24.8,12.3z"/>
</svg>
