<?xml version="1.0" encoding="utf-8"?>
<!-- Generator: Adobe Adobe Illustrator 29.1.0, SVG Export Plug-In . SVG Version: 6.00 Build 0)  -->
<svg version="1.1" id="Layer_1" xmlns="http://www.w3.org/2000/svg" xmlns:xlink="http://www.w3.org/1999/xlink" x="0px" y="0px"
	 viewBox="0 0 48 48" style="enable-background:new 0 0 48 48;" xml:space="preserve">
<style type="text/css">
	.st0{fill:url(#SVGID_1_);}
	.st1{fill:url(#SVGID_00000106855183899045187000000017389641850673288636_);}
	.st2{fill:url(#SVGID_00000122711362078688049630000008716186015886697098_);}
	.st3{fill:#FFFFFF;}
	.st4{fill-rule:evenodd;clip-rule:evenodd;fill:#FFFFFF;}
</style>
<g id="icons_00000140703807266603195100000001086121097104252034_">
	<g id="Layer_3_00000150806535370587867260000013355450799517200575_">
		
			<linearGradient id="SVGID_1_" gradientUnits="userSpaceOnUse" x1="12.208" y1="25.992" x2="37.0002" y2="25.992" gradientTransform="matrix(1 0 0 -1 0 50)">
			<stop  offset="0" style="stop-color:#FF0015"/>
			<stop  offset="1" style="stop-color:#D6000B"/>
		</linearGradient>
		<path class="st0" d="M18.7,8.3c-2.3,1.1-4.1,2.9-5.2,5.2c-2.1,4.3-1.7,9.4,1.2,13.3l9.9,14.2l9.9-14.2c1.6-2.2,2.5-4.8,2.4-7.4
			C37,10.6,28,4,18.7,8.3z"/>
	</g>
</g>
<g>
	<g>
		<g>
			<path class="st4" d="M24.6,9.3c-5.6,0-10.2,4.6-10.2,10.2c0,5.6,4.6,10.2,10.2,10.2c5.6,0,10.2-4.6,10.2-10.2
				C34.8,13.9,30.2,9.3,24.6,9.3z M31,25.9c-1.6,1.6-3.9,2.7-6.4,2.7c-2.5,0-4.8-1-6.4-2.7c-1.6-1.6-2.7-3.9-2.7-6.4s1-4.8,2.7-6.4
				c1.6-1.6,3.9-2.7,6.4-2.7c2.5,0,4.8,1,6.4,2.7c1.6,1.6,2.7,3.9,2.7,6.4S32.6,24.3,31,25.9z"/>
			<path class="st4" d="M29.9,17.2h-3v-3c0-0.2-0.2-0.4-0.4-0.4h-3.7c-0.2,0-0.4,0.2-0.4,0.4v3h-3c-0.2,0-0.4,0.2-0.4,0.4v3.7
				c0,0.2,0.2,0.4,0.4,0.4h3v3c0,0.2,0.2,0.4,0.4,0.4h3.7c0.2,0,0.4-0.2,0.4-0.4v-3h3c0.2,0,0.4-0.2,0.4-0.4v-3.7
				C30.3,17.4,30.1,17.2,29.9,17.2z"/>
		</g>
	</g>
</g>
</svg>
