<?xml version="1.0" encoding="utf-8"?>
<!-- Generator: Adobe Adobe Illustrator 29.1.0, SVG Export Plug-In . SVG Version: 6.00 Build 0)  -->
<svg version="1.1" id="Layer_1" xmlns="http://www.w3.org/2000/svg" xmlns:xlink="http://www.w3.org/1999/xlink" x="0px" y="0px"
	 viewBox="0 0 48 48" style="enable-background:new 0 0 48 48;" xml:space="preserve">
<style type="text/css">
	.st0{fill:url(#SVGID_1_);}
	.st1{fill:url(#SVGID_00000058591283932152329090000008386821115003715766_);}
	.st2{fill:url(#SVGID_00000057118021184486339200000009745460403816882085_);}
	.st3{fill:#FFFFFF;}
	.st4{fill-rule:evenodd;clip-rule:evenodd;fill:#FFFFFF;}
</style>
<g id="icons_00000093153991153692376780000000567154989494346117_">
	<g id="Layer_3_00000167376698247138474130000011072230280282052510_">
		
			<linearGradient id="SVGID_1_" gradientUnits="userSpaceOnUse" x1="12.208" y1="25.992" x2="37.0002" y2="25.992" gradientTransform="matrix(1 0 0 -1 0 50)">
			<stop  offset="0" style="stop-color:#FF0015"/>
			<stop  offset="1" style="stop-color:#D6000B"/>
		</linearGradient>
		<path class="st0" d="M18.7,8.3c-2.3,1.1-4.1,2.9-5.2,5.2c-2.1,4.3-1.7,9.4,1.2,13.3l9.9,14.2l9.9-14.2c1.6-2.2,2.5-4.8,2.4-7.4
			C37,10.6,28,4,18.7,8.3z"/>
	</g>
</g>
<g>
	<path class="st3" d="M29.6,17.2c0-1.4-0.6-2.6-1.5-3.5c-0.9-0.9-2.2-1.5-3.5-1.5c-1.4,0-2.6,0.6-3.5,1.5c-0.9,0.9-1.5,2.2-1.5,3.5
		s0.6,2.6,1.5,3.5c0.9,0.9,2.2,1.5,3.5,1.5c1.4,0,2.6-0.6,3.5-1.5C29,19.8,29.6,18.6,29.6,17.2z"/>
	<path class="st3" d="M17.8,25.9c0,1,2.6,2,6.8,2c4,0,6.8-1,6.8-2c0-2-2.7-4-6.8-4C20.3,21.9,17.8,23.9,17.8,25.9z"/>
</g>
</svg>
