<?xml version="1.0" encoding="utf-8"?>
<!-- Generator: Adobe Adobe Illustrator 29.1.0, SVG Export Plug-In . SVG Version: 6.00 Build 0)  -->
<svg version="1.1" id="Camada_1" xmlns="http://www.w3.org/2000/svg" xmlns:xlink="http://www.w3.org/1999/xlink" x="0px" y="0px"
	 width="242.8px" height="24.2px" viewBox="0 0 242.8 24.2" style="enable-background:new 0 0 242.8 24.2;" xml:space="preserve">
<style type="text/css">
	.st0{fill:#FFFFFF;}
	.st1{clip-path:url(#SVGID_00000089547755148695750570000015734451407725093025_);fill:#FFFFFF;}
</style>
<g>
	<path class="st0" d="M8.2,13.8c3.7,0.8,5.4,2.1,5.4,4.7c0,2.9-2.4,4.7-5.6,4.7c-2.6,0-4.8-0.9-6.7-2.6l1.2-1.4
		c1.7,1.5,3.4,2.3,5.7,2.3c2.2,0,3.7-1.1,3.7-2.8c0-1.5-0.8-2.4-4.3-3.1c-3.8-0.8-5.5-2.1-5.5-4.8c0-2.6,2.3-4.5,5.4-4.5
		c2.4,0,4.1,0.7,5.8,2L12,9.7c-1.5-1.3-3.1-1.8-4.8-1.8c-2.1,0-3.5,1.2-3.5,2.7C3.7,12.1,4.6,13,8.2,13.8z"/>
	<path class="st0" d="M32,22.9h-2L28,18.6h-9l-2,4.4h-1.9l7.5-16.6h1.7L32,22.9z M23.6,8.5l-3.8,8.4h7.5L23.6,8.5z"/>
	<path class="st0" d="M47,6.5h1.8v16.5h-1.5L36.7,9.4v13.5h-1.8V6.5h1.7L47,19.7V6.5z"/>
	<path class="st0" d="M60.8,23.2c-5.2,0-8.4-3.8-8.4-8.5c0-4.5,3.3-8.5,8.3-8.5c2.8,0,4.5,0.8,6.1,2.2l-1.2,1.4
		c-1.3-1.1-2.7-1.9-5-1.9c-3.7,0-6.3,3.1-6.3,6.8c0,4,2.5,6.9,6.5,6.9c1.9,0,3.6-0.7,4.8-1.6v-4.1h-5v-1.7h6.8v6.6
		C65.8,22,63.5,23.2,60.8,23.2z"/>
	<path class="st0" d="M84.7,15.9c0,4.8-2.8,7.3-6.9,7.3c-4.1,0-6.8-2.5-6.8-7.1V6.5h1.9v9.5c0,3.5,1.9,5.6,5,5.6c3,0,5-1.8,5-5.4
		V6.5h1.9L84.7,15.9L84.7,15.9z"/>
	<path class="st0" d="M100.6,8.1h-10v5.6h9v1.7h-9v5.8h10.2v1.7h-12V6.5h11.9V8.1z"/>
	<path class="st0" d="M114.1,23.2c-2.5,0-5-0.9-7-2.6l2.1-2.6c1.5,1.2,3,2,4.9,2c1.5,0,2.4-0.6,2.4-1.5v0c0-0.9-0.6-1.4-3.3-2.1
		c-3.3-0.9-5.5-1.8-5.5-5v-0.1c0-3,2.4-5,5.8-5c2.4,0,4.4,0.8,6.1,2.1l-1.9,2.7c-1.5-1-2.9-1.6-4.3-1.6s-2.1,0.6-2.1,1.4v0.1
		c0,1.1,0.7,1.4,3.6,2.2c3.3,0.9,5.2,2.1,5.2,4.9v0C120.2,21.3,117.7,23.2,114.1,23.2z"/>
	<path class="st0" d="M130.9,23.2c-5.1,0-8.7-3.8-8.7-8.5v-0.1c0-4.7,3.7-8.5,8.8-8.5s8.7,3.8,8.7,8.5v0.1
		C139.7,19.4,136,23.2,130.9,23.2z M135.9,14.7c0-2.8-2.1-5.2-5-5.2s-4.9,2.3-4.9,5.1v0.1c0,2.8,2.1,5.2,5,5.2
		S135.9,17.6,135.9,14.7L135.9,14.7z"/>
	<path class="st0" d="M142.6,22.9V6.5h3.6v13.2h8.2v3.3C154.4,22.9,142.6,22.9,142.6,22.9z"/>
	<path class="st0" d="M157,22.9V6.5h3.6v16.5L157,22.9L157,22.9z"/>
	<path class="st0" d="M170.8,22.9h-6.4V6.5h6.4c5.2,0,8.8,3.6,8.8,8.2v0.1C179.6,19.3,176,22.9,170.8,22.9z M175.8,14.7
		c0-2.9-2-5-5-5H168v9.9h2.8C173.8,19.7,175.8,17.7,175.8,14.7L175.8,14.7L175.8,14.7z"/>
	<path class="st0" d="M194.7,22.9l-1.5-3.7h-7l-1.5,3.7H181l7.1-16.6h3.3l7.1,16.6H194.7z M189.7,10.7l-2.2,5.3h4.4L189.7,10.7z
		 M188.2,5.2l2.7-4.2l3.1,1.3l-3,2.8H188.2z"/>
	<path class="st0" d="M210.7,22.9l-3.5-5.3h-2.9v5.3h-3.6V6.5h7.5c3.9,0,6.2,2.1,6.2,5.4v0.1c0,2.7-1.4,4.3-3.5,5.1l4,5.9
		C214.9,22.9,210.7,22.9,210.7,22.9z M210.7,12.1c0-1.6-1.1-2.4-2.9-2.4h-3.6v4.7h3.7C209.7,14.5,210.7,13.5,210.7,12.1L210.7,12.1
		L210.7,12.1z"/>
	<path class="st0" d="M217.5,22.9V6.5h3.6v16.5L217.5,22.9L217.5,22.9z"/>
	<g>
		<g>
			<path id="SVGID_00000031894631091262739030000017036674553170079892_" class="st0" d="M232.9,6.2c-5.1,0-8.8,3.8-8.8,8.5v0.1
				c0,4.7,3.6,8.5,8.7,8.5s8.8-3.8,8.8-8.5v-0.1C241.7,10,238,6.2,232.9,6.2z M237.2,15.5c0,2.4-1.7,4.4-4.2,4.4s-4.3-2-4.3-4.4v0
				c0-2.2,3.4-5.3,4.1-5.9c0.1-0.1,0.2-0.1,0.3,0C233.8,10.2,237.2,13.4,237.2,15.5L237.2,15.5L237.2,15.5z"/>
		</g>
		<g>
			<defs>
				<path id="SVGID_1_" d="M232.9,6.2c-5.1,0-8.8,3.8-8.8,8.5v0.1c0,4.7,3.6,8.5,8.7,8.5s8.8-3.8,8.8-8.5v-0.1
					C241.7,10,238,6.2,232.9,6.2z M237.2,15.5c0,2.4-1.7,4.4-4.2,4.4s-4.3-2-4.3-4.4v0c0-2.2,3.4-5.3,4.1-5.9c0.1-0.1,0.2-0.1,0.3,0
					C233.8,10.2,237.2,13.4,237.2,15.5L237.2,15.5L237.2,15.5z"/>
			</defs>
			<use xlink:href="#SVGID_1_"  style="overflow:visible;fill:#FFFFFF;"/>
			<clipPath id="SVGID_00000170990383013729340650000012941201468847920292_">
				<use xlink:href="#SVGID_1_"  style="overflow:visible;"/>
			</clipPath>
			<path style="clip-path:url(#SVGID_00000170990383013729340650000012941201468847920292_);fill:#FFFFFF;" d="M233.1,9.5
				c-0.1-0.1-0.2-0.1-0.3,0c-0.7,0.6-4.1,3.8-4.1,5.9v0c0,2.4,1.8,4.4,4.3,4.4s4.2-2,4.2-4.4v0C237.2,13.3,233.8,10.2,233.1,9.5z"/>
		</g>
	</g>
</g>
</svg>
