<?xml version="1.0" encoding="utf-8"?>
<!-- Generator: Adobe Adobe Illustrator 29.1.0, SVG Export Plug-In . SVG Version: 6.00 Build 0)  -->
<svg version="1.1" id="Camada_1" xmlns="http://www.w3.org/2000/svg" xmlns:xlink="http://www.w3.org/1999/xlink" x="0px" y="0px"
	 width="242.84px" height="24.2px" viewBox="0 0 242.84 24.2" style="enable-background:new 0 0 242.84 24.2;" xml:space="preserve"
	>
<style type="text/css">
	.st0{fill:#F2F2F2;}
	.st1{clip-path:url(#SVGID_00000000920056172243931380000010745709569734914233_);fill:#F2F2F2;}
	.st2{fill:#333333;}
	.st3{clip-path:url(#SVGID_00000068637993322212729180000014895175606542239655_);fill:#333333;}
	.st4{fill:#C1272D;}
	.st5{clip-path:url(#SVGID_00000100380860225978765900000003877670125274235554_);fill:#C1272D;}
</style>
<g>
	<path class="st4" d="M8.17,13.8c3.67,0.8,5.36,2.14,5.36,4.68c0,2.85-2.35,4.68-5.62,4.68c-2.61,0-4.75-0.87-6.73-2.63l1.15-1.36
		c1.72,1.55,3.36,2.33,5.65,2.33c2.21,0,3.67-1.15,3.67-2.82c0-1.55-0.82-2.42-4.28-3.15c-3.79-0.82-5.53-2.05-5.53-4.77
		c0-2.63,2.28-4.52,5.41-4.52c2.4,0,4.12,0.68,5.79,2.02l-1.08,1.43C10.43,8.43,8.9,7.89,7.21,7.89c-2.14,0-3.5,1.18-3.5,2.68
		C3.7,12.15,4.55,13.02,8.17,13.8z"/>
	<path class="st4" d="M31.96,22.92h-2l-1.93-4.35h-8.96l-1.95,4.35h-1.9l7.5-16.58h1.74L31.96,22.92z M23.56,8.5l-3.76,8.4h7.5
		L23.56,8.5z"/>
	<path class="st4" d="M46.98,6.46h1.81v16.47h-1.48L36.68,9.42v13.5h-1.81V6.46h1.74l10.37,13.2V6.46z"/>
	<path class="st4" d="M60.75,23.2c-5.17,0-8.37-3.76-8.37-8.49c0-4.54,3.32-8.54,8.26-8.54c2.78,0,4.49,0.8,6.14,2.19l-1.2,1.41
		c-1.27-1.11-2.68-1.88-5.01-1.88c-3.65,0-6.26,3.08-6.26,6.77c0,3.95,2.52,6.87,6.52,6.87c1.88,0,3.62-0.73,4.75-1.65V15.8h-5.01
		v-1.67h6.8v6.56C65.83,22.05,63.52,23.2,60.75,23.2z"/>
	<path class="st4" d="M84.66,15.89c0,4.8-2.75,7.29-6.87,7.29c-4.07,0-6.85-2.49-6.85-7.15V6.46h1.86v9.46
		c0,3.55,1.88,5.55,5.03,5.55c3.03,0,4.96-1.83,4.96-5.43V6.46h1.86V15.89z"/>
	<path class="st4" d="M100.61,8.15H90.57v5.62h8.99v1.69h-8.99v5.76h10.16v1.69H88.71V6.46h11.9V8.15z"/>
	<path class="st4" d="M114.1,23.16c-2.49,0-5.01-0.87-6.99-2.63l2.14-2.56c1.48,1.22,3.03,2,4.92,2c1.48,0,2.38-0.59,2.38-1.55
		v-0.05c0-0.92-0.57-1.39-3.32-2.09c-3.32-0.85-5.46-1.76-5.46-5.03v-0.05c0-2.99,2.4-4.96,5.76-4.96c2.4,0,4.45,0.75,6.12,2.09
		l-1.88,2.73c-1.46-1.01-2.89-1.62-4.28-1.62c-1.39,0-2.12,0.63-2.12,1.43v0.05c0,1.08,0.71,1.43,3.55,2.16
		c3.34,0.87,5.22,2.07,5.22,4.94v0.05C120.15,21.32,117.65,23.16,114.1,23.16z"/>
	<path class="st4" d="M130.95,23.2c-5.08,0-8.73-3.79-8.73-8.47v-0.05c0-4.68,3.69-8.52,8.77-8.52c5.08,0,8.73,3.79,8.73,8.47v0.05
		C139.73,19.37,136.03,23.2,130.95,23.2z M135.94,14.69c0-2.82-2.07-5.18-4.99-5.18c-2.92,0-4.94,2.31-4.94,5.13v0.05
		c0,2.82,2.07,5.18,4.99,5.18c2.92,0,4.94-2.31,4.94-5.13V14.69z"/>
	<path class="st4" d="M142.61,22.92V6.46h3.62v13.17h8.21v3.29H142.61z"/>
	<path class="st4" d="M156.99,22.92V6.46h3.62v16.47H156.99z"/>
	<path class="st4" d="M170.8,22.92h-6.42V6.46h6.42c5.18,0,8.75,3.55,8.75,8.19v0.05C179.55,19.32,175.97,22.92,170.8,22.92z
		 M175.76,14.69c0-2.92-2-4.96-4.96-4.96H168v9.93h2.8c2.96,0,4.96-2,4.96-4.92V14.69z"/>
	<path class="st4" d="M194.68,22.92l-1.51-3.69h-6.96l-1.51,3.69h-3.69l7.06-16.58h3.34l7.06,16.58H194.68z M189.7,10.69l-2.19,5.34
		h4.38L189.7,10.69z M188.24,5.16L190.9,1l3.08,1.34l-3.01,2.82H188.24z"/>
	<path class="st4" d="M210.66,22.92l-3.53-5.27h-2.85v5.27h-3.62V6.46h7.53c3.88,0,6.21,2.05,6.21,5.43v0.05
		c0,2.66-1.43,4.33-3.53,5.1l4.02,5.88H210.66z M210.73,12.08c0-1.55-1.08-2.35-2.85-2.35h-3.6v4.73h3.67
		c1.76,0,2.78-0.94,2.78-2.33V12.08z"/>
	<path class="st4" d="M217.49,22.92V6.46h3.62v16.47H217.49z"/>
	<g>
		<defs>
			<path id="SVGID_00000031894631091262739030000017036674553170079892_" d="M232.93,6.17c-5.08,0-8.77,3.83-8.77,8.52v0.05
				c0,4.68,3.65,8.47,8.73,8.47c5.08,0,8.77-3.83,8.77-8.52v-0.05C241.66,9.96,238.01,6.17,232.93,6.17z M237.18,15.54
				c0,2.41-1.73,4.39-4.23,4.39s-4.27-2.01-4.27-4.43v-0.04c0-2.15,3.36-5.29,4.09-5.94c0.08-0.07,0.19-0.07,0.27,0
				c0.73,0.66,4.13,3.83,4.13,5.98V15.54z"/>
		</defs>
		<use xlink:href="#SVGID_00000031894631091262739030000017036674553170079892_"  style="overflow:visible;fill:#C1272D;"/>
		<clipPath id="SVGID_00000022532733034648889690000004699234255851370939_">
			<use xlink:href="#SVGID_00000031894631091262739030000017036674553170079892_"  style="overflow:visible;"/>
		</clipPath>
		<path style="clip-path:url(#SVGID_00000022532733034648889690000004699234255851370939_);fill:#C1272D;" d="M233.05,9.51
			c-0.08-0.07-0.19-0.07-0.27,0c-0.73,0.65-4.09,3.79-4.09,5.94v0.04c0,2.41,1.77,4.43,4.27,4.43s4.23-1.97,4.23-4.39V15.5
			C237.18,13.34,233.77,10.17,233.05,9.51z"/>
	</g>
</g>
</svg>
